<svg xmlns="http://www.w3.org/2000/svg" width="24.158" height="21" viewBox="0 0 24.158 21">
  <g id="Miles" transform="translate(0.5 0.5)">
    <path id="Path_317" data-name="Path 317" d="M167.917,230a9.575,9.575,0,0,1-.637,6.316" transform="translate(-147.659 -220.526)" fill="none" stroke="#595959" stroke-linecap="round" stroke-linejoin="round" stroke-miterlimit="10" stroke-width="1"/>
    <path id="Path_318" data-name="Path 318" d="M135.958,230.163a9.1,9.1,0,0,1-.747-2.137,9.358,9.358,0,0,1-.211-1.968,8.935,8.935,0,0,1,16.163-5.363" transform="translate(-132.368 -214.373)" fill="none" stroke="#595959" stroke-linecap="round" stroke-linejoin="round" stroke-miterlimit="10" stroke-width="1"/>
    <circle id="Ellipse_7" data-name="Ellipse 7" cx="2.105" cy="2.105" r="2.105" transform="translate(9.474 9.474)" fill="none" stroke="#595959" stroke-linejoin="round" stroke-miterlimit="10" stroke-width="1"/>
    <line id="Line_146" data-name="Line 146" x1="2.632" y2="1.158" transform="translate(6.842 12.526)" fill="none" stroke="#595959" stroke-linecap="round" stroke-linejoin="round" stroke-miterlimit="10" stroke-width="1"/>
    <line id="Line_147" data-name="Line 147" x1="6.842" y2="3.068" transform="translate(13.684 7.605)" fill="none" stroke="#595959" stroke-linecap="round" stroke-linejoin="round" stroke-miterlimit="10" stroke-width="1"/>
    <line id="Line_148" data-name="Line 148" x2="5.263" transform="translate(8.947 17.368)" fill="none" stroke="#595959" stroke-linecap="round" stroke-linejoin="round" stroke-miterlimit="10" stroke-width="1"/>
    <path id="Path_319" data-name="Path 319" d="M141.579,212a11.576,11.576,0,0,0-7.942,20h15.884a11.576,11.576,0,0,0-7.942-20Z" transform="translate(-130 -212)" fill="none" stroke="#595959" stroke-linecap="round" stroke-linejoin="round" stroke-miterlimit="10" stroke-width="1"/>
  </g>
</svg>
