<svg xmlns="http://www.w3.org/2000/svg" width="27.286" height="21" viewBox="0 0 27.286 21">
  <g id="price" transform="translate(-48.5 -56.5)">
    <line id="Line_121" data-name="Line 121" x2="5.143" y2="0.011" transform="translate(62.143 66.143)" fill="none" stroke="#595959" stroke-linejoin="round" stroke-miterlimit="10" stroke-width="1"/>
    <path id="Path_270" data-name="Path 270" d="M56.143,73.263a2.286,2.286,0,1,1,2.286,0" transform="translate(-2.571 -5.143)" fill="none" stroke="#595959" stroke-linejoin="round" stroke-miterlimit="10" stroke-width="1"/>
    <path id="Path_271" data-name="Path 271" d="M85.581,71.286A2.286,2.286,0,1,1,83.3,69,2.285,2.285,0,0,1,85.581,71.286Z" transform="translate(-13.719 -5.143)" fill="none" stroke="#595959" stroke-linejoin="round" stroke-miterlimit="10" stroke-width="1"/>
    <path id="Path_272" data-name="Path 272" d="M62.429,73h1.714l5.714,5.714-5.143,5.143L59,78.143V73h1.143" transform="translate(-4.286 -6.857)" fill="none" stroke="#595959" stroke-linejoin="round" stroke-miterlimit="10" stroke-width="1"/>
    <path id="Path_273" data-name="Path 273" d="M71.857,66.143h3.429V63.286c0-1.337-1.954-2.571-7.4-3.429A8.786,8.786,0,0,0,61.537,57H58.143c-2.217,0-5.3,2.143-6.286,2.857h-1.72a.568.568,0,0,0-.566.571v2.286L49,63.857V65a1.146,1.146,0,0,0,1.143,1.143h2.286" fill="none" stroke="#595959" stroke-linejoin="round" stroke-miterlimit="10" stroke-width="1"/>
    <path id="Path_274" data-name="Path 274" d="M69.623,63.114l-1.143.457H57.571L57,63" transform="translate(-3.429 -2.571)" fill="none" stroke="#595959" stroke-linejoin="round" stroke-miterlimit="10" stroke-width="1"/>
  </g>
</svg>
