<?xml version="1.0" encoding="UTF-8"?>
<svg width="501px" height="172px" viewBox="0 0 501 172" version="1.1" xmlns="http://www.w3.org/2000/svg" xmlns:xlink="http://www.w3.org/1999/xlink">
    <!-- Generator: Sketch 51.3 (57544) - http://www.bohemiancoding.com/sketch -->
    <title>Motability_Master_Logotype_rgb</title>
    <desc>Created with Sketch.</desc>
    <defs></defs>
    <g id="Motability_Master_Logotype_rgb" stroke="none" stroke-width="1" fill="none" fill-rule="evenodd">
        <g>
            <polygon id="Background" fill="#213E8F" points="0 172 501 172 501 0 0 0"></polygon>
            <g id="symbol_wordmark" transform="translate(38.000000, 38.000000)" fill="#FFFFFF">
                <path d="M317.912,37.024 L318.331,37.024 C319.214,37.024 319.877,37.06 320.32,37.13 C320.762,37.199 321.018,37.293 321.087,37.409 C321.157,37.525 321.192,37.677 321.192,37.862 L321.192,73.035 C321.192,73.222 321.157,73.373 321.087,73.489 C321.018,73.605 320.762,73.698 320.32,73.769 C319.877,73.838 319.214,73.873 318.331,73.873 L317.912,73.873 C316.609,73.873 315.784,73.815 315.435,73.698 C315.086,73.583 314.911,73.361 314.911,73.035 L314.911,37.862 C314.911,37.537 315.086,37.316 315.435,37.199 C315.784,37.084 316.609,37.024 317.912,37.024 Z M314.946,28.825 C314.085,27.965 313.655,26.93 313.655,25.72 C313.655,24.51 314.085,23.476 314.946,22.613 C315.807,21.753 316.841,21.322 318.052,21.322 C319.261,21.322 320.296,21.753 321.157,22.613 C322.018,23.476 322.448,24.51 322.448,25.72 C322.448,26.93 322.018,27.965 321.157,28.825 C320.296,29.687 319.261,30.116 318.052,30.116 C316.841,30.116 315.807,29.687 314.946,28.825 Z" id="Fill-4"></path>
                <path d="M335.08,20.834 L335.498,20.834 C336.568,20.834 337.289,20.893 337.662,21.009 C338.034,21.125 338.266,21.369 338.359,21.741 C338.639,23.323 338.778,30.21 338.778,42.398 L338.778,65.568 C338.778,66.918 338.941,67.836 339.267,68.324 C339.592,68.813 340.313,69.058 341.43,69.058 L342.128,69.058 C342.407,69.058 342.547,69.686 342.547,70.941 L342.547,71.151 C342.547,72.547 342.407,73.292 342.128,73.385 C341.104,73.757 340.01,73.942 338.848,73.942 C336.475,73.942 334.753,73.152 333.684,71.569 C332.892,70.407 332.498,67.965 332.498,64.242 L332.498,40.863 C332.498,30.303 332.358,23.929 332.079,21.741 C332.032,21.416 332.218,21.183 332.637,21.044 C333.056,20.904 333.869,20.834 335.08,20.834" id="Fill-5"></path>
                <path d="M354.62,37.024 L355.039,37.024 C355.922,37.024 356.584,37.06 357.027,37.13 C357.469,37.199 357.725,37.293 357.795,37.409 C357.865,37.525 357.9,37.677 357.9,37.862 L357.9,73.035 C357.9,73.222 357.865,73.373 357.795,73.489 C357.725,73.605 357.469,73.698 357.027,73.769 C356.584,73.838 355.922,73.873 355.039,73.873 L354.62,73.873 C353.316,73.873 352.491,73.815 352.142,73.698 C351.793,73.583 351.619,73.361 351.619,73.035 L351.619,37.862 C351.619,37.537 351.793,37.316 352.142,37.199 C352.491,37.084 353.316,37.024 354.62,37.024 Z M351.654,28.825 C350.792,27.965 350.363,26.93 350.363,25.72 C350.363,24.51 350.792,23.476 351.654,22.613 C352.514,21.753 353.549,21.322 354.759,21.322 C355.969,21.322 357.003,21.753 357.865,22.613 C358.725,23.476 359.156,24.51 359.156,25.72 C359.156,26.93 358.725,27.965 357.865,28.825 C357.003,29.687 355.969,30.116 354.759,30.116 C353.549,30.116 352.514,29.687 351.654,28.825 Z" id="Fill-6"></path>
                <path d="M372.625,26.696 L373.043,26.696 C373.926,26.696 374.589,26.731 375.032,26.801 C375.474,26.871 375.73,26.965 375.8,27.08 C375.87,27.197 375.904,27.349 375.904,27.534 L375.904,37.024 L384.697,37.024 C385.116,37.024 385.326,37.747 385.326,39.189 L385.326,39.747 C385.326,41.236 385.116,41.979 384.697,41.979 L375.904,41.979 L375.904,62.567 C375.904,65.358 376.276,67.15 377.021,67.94 C377.812,68.778 378.998,69.197 380.58,69.197 C381.743,69.197 383.324,68.895 385.326,68.29 C385.65,68.197 385.895,68.244 386.059,68.43 C386.221,68.616 386.396,69.034 386.582,69.686 L386.791,70.593 C387.07,71.803 387,72.547 386.582,72.826 C384.768,73.988 382.324,74.57 379.254,74.57 C376.229,74.57 373.903,73.803 372.275,72.268 C370.507,70.64 369.624,67.569 369.624,63.056 L369.624,41.979 L365.227,41.979 C364.808,41.979 364.599,41.236 364.599,39.747 L364.599,39.189 C364.599,37.747 364.808,37.024 365.227,37.024 L369.624,37.024 L369.624,27.534 C369.624,27.209 369.798,26.987 370.147,26.871 C370.496,26.755 371.321,26.696 372.625,26.696" id="Fill-7"></path>
                <path d="M397.748,37.793 L404.308,55.17 C405.982,59.59 407.262,63.568 408.146,67.104 C408.657,64.964 409.844,61.148 411.705,55.658 L417.916,37.793 C418.102,37.281 419.148,37.024 421.057,37.024 C422.406,37.024 423.313,37.095 423.779,37.234 C424.242,37.374 424.406,37.63 424.268,38.002 L411.077,74.71 C409.216,79.92 407.238,83.644 405.145,85.876 C402.493,88.714 399.027,90.134 394.746,90.134 C392.606,90.134 390.745,89.715 389.164,88.877 C388.605,88.598 388.535,87.854 388.955,86.644 L389.233,85.807 C389.513,84.969 389.745,84.445 389.932,84.236 C390.117,84.027 390.396,83.968 390.77,84.062 C392.258,84.48 393.514,84.689 394.537,84.689 C396.863,84.689 398.795,83.934 400.33,82.422 C401.865,80.909 403.354,78.199 404.797,74.292 L390.908,38.002 C390.723,37.583 390.861,37.316 391.327,37.199 C391.791,37.084 392.746,37.024 394.188,37.024 C396.375,37.024 397.561,37.281 397.748,37.793" id="Fill-8"></path>
                <path d="M123.623,23.626 L123.972,23.626 C126.298,23.626 127.577,23.975 127.81,24.673 L140.791,57.193 L153.422,24.673 C153.655,23.975 154.864,23.626 157.051,23.626 L157.54,23.626 C159.958,23.626 161.169,23.975 161.169,24.673 L163.123,73.105 C163.123,73.617 162.216,73.873 160.401,73.873 L159.633,73.873 C157.725,73.873 156.772,73.617 156.772,73.105 L155.516,34.373 L144.001,64.451 C143.814,64.917 142.768,65.149 140.86,65.149 L140.302,65.149 C138.394,65.149 137.347,64.895 137.162,64.382 L125.507,35.35 L124.111,73.105 C124.111,73.617 123.157,73.873 121.25,73.873 L120.552,73.873 C118.738,73.873 117.831,73.617 117.831,73.105 L120.134,24.673 C120.179,24.208 120.401,23.917 120.796,23.8 C121.191,23.685 122.133,23.626 123.623,23.626" id="Fill-9"></path>
                <path d="M187.269,41.91 C184.199,41.91 181.674,43.051 179.697,45.33 C177.719,47.609 176.731,51.099 176.731,55.798 C176.731,58.125 176.986,60.219 177.499,62.079 C178.01,63.94 179.034,65.558 180.569,66.929 C182.105,68.302 184.059,68.987 186.432,68.987 C189.502,68.987 192.026,67.849 194.004,65.568 C195.98,63.289 196.97,59.8 196.97,55.1 C196.97,52.774 196.713,50.681 196.202,48.819 C195.689,46.959 194.667,45.342 193.131,43.969 C191.596,42.597 189.642,41.91 187.269,41.91 Z M187.548,36.327 C191.921,36.327 195.41,37.49 198.017,39.816 C201.691,43.073 203.53,48.006 203.53,54.611 C203.53,61.079 201.97,66.021 198.854,69.441 C195.736,72.861 191.502,74.57 186.153,74.57 C181.779,74.57 178.29,73.408 175.685,71.081 C172.009,67.825 170.171,62.894 170.171,56.286 C170.171,49.82 171.729,44.876 174.847,41.456 C177.963,38.037 182.198,36.327 187.548,36.327 Z" id="Fill-10"></path>
                <path d="M215.742,26.696 L216.161,26.696 C217.044,26.696 217.707,26.731 218.149,26.801 C218.591,26.871 218.848,26.965 218.917,27.08 C218.987,27.197 219.022,27.349 219.022,27.534 L219.022,37.024 L227.815,37.024 C228.234,37.024 228.443,37.747 228.443,39.189 L228.443,39.747 C228.443,41.236 228.234,41.979 227.815,41.979 L219.022,41.979 L219.022,62.567 C219.022,65.358 219.394,67.15 220.139,67.94 C220.929,68.778 222.116,69.197 223.698,69.197 C224.86,69.197 226.442,68.895 228.443,68.29 C228.768,68.197 229.013,68.244 229.176,68.43 C229.338,68.616 229.513,69.034 229.7,69.686 L229.909,70.593 C230.188,71.803 230.118,72.547 229.7,72.826 C227.885,73.988 225.442,74.57 222.372,74.57 C219.347,74.57 217.021,73.803 215.393,72.268 C213.625,70.64 212.741,67.569 212.741,63.056 L212.741,41.979 L208.344,41.979 C207.926,41.979 207.716,41.236 207.716,39.747 L207.716,39.189 C207.716,37.747 207.926,37.024 208.344,37.024 L212.741,37.024 L212.741,27.534 C212.741,27.209 212.916,26.987 213.265,26.871 C213.613,26.755 214.439,26.696 215.742,26.696" id="Fill-11"></path>
                <path d="M260.057,56.635 L260.057,46.726 C259.22,45.377 258.068,44.248 256.603,43.341 C255.137,42.434 253.613,41.979 252.032,41.979 C248.867,41.979 246.379,43.213 244.564,45.679 C242.75,48.146 241.843,51.495 241.843,55.728 C241.843,59.496 242.598,62.649 244.111,65.185 C245.622,67.721 248.03,68.987 251.333,68.987 C254.311,68.987 256.638,68.08 258.313,66.266 C259.01,65.476 259.475,64.451 259.708,63.195 C259.94,61.939 260.057,59.753 260.057,56.635 Z M263.616,37.024 L263.756,37.024 C264.965,37.024 265.721,37.084 266.024,37.199 C266.326,37.316 266.478,37.537 266.478,37.862 C266.478,38.188 266.454,39.607 266.408,42.119 C266.361,44.632 266.338,46.749 266.338,48.47 L266.338,58.24 C266.338,62.148 266.5,67.08 266.827,73.035 C266.827,73.594 265.989,73.873 264.314,73.873 L264.035,73.873 C262.313,73.873 261.429,73.594 261.383,73.035 L260.964,69.825 C259.801,71.221 258.266,72.361 256.358,73.245 C254.45,74.128 252.403,74.57 250.217,74.57 C245.378,74.57 241.679,72.826 239.121,69.337 C236.562,65.848 235.283,61.428 235.283,56.077 C235.283,50.169 236.794,45.399 239.819,41.771 C242.842,38.142 246.681,36.327 251.333,36.327 C255.288,36.327 258.428,37.816 260.755,40.793 L261.104,37.862 C261.15,37.443 261.301,37.199 261.558,37.13 C261.813,37.06 262.5,37.024 263.616,37.024 Z" id="Fill-12"></path>
                <path d="M282.528,59.287 L282.528,67.94 C284.528,68.732 286.552,69.127 288.6,69.127 C292.461,69.127 295.404,67.849 297.428,65.289 C299.452,62.73 300.464,59.287 300.464,54.96 C300.464,46.493 297.486,42.259 291.531,42.259 C288.646,42.259 286.342,43.12 284.622,44.841 C283.598,45.865 282.97,47.54 282.738,49.866 C282.598,51.82 282.528,54.96 282.528,59.287 Z M279.248,20.834 L279.667,20.834 C280.55,20.834 281.213,20.869 281.656,20.939 C282.098,21.009 282.354,21.103 282.423,21.218 C282.493,21.335 282.528,21.486 282.528,21.672 L282.528,40.444 C283.551,39.235 285.028,38.246 286.959,37.479 C288.89,36.711 290.879,36.327 292.927,36.327 C298.51,36.327 302.51,38.887 304.93,44.004 C306.326,47.028 307.023,50.518 307.023,54.472 C307.023,60.753 305.499,65.673 302.453,69.231 C299.405,72.791 294.973,74.57 289.158,74.57 C284.273,74.57 280.039,73.757 276.457,72.128 C276.317,72.082 276.247,71.849 276.247,71.431 L276.247,21.672 C276.247,21.347 276.422,21.125 276.771,21.009 C277.12,20.893 277.945,20.834 279.248,20.834 Z" id="Fill-13"></path>
                <path d="M42.751,40.822 C42.751,40.822 43.068,12.27 37.596,5.896 C32.197,-0.372 25.668,4.66 27.822,9.92 C29.692,14.487 33.76,15.23 42.751,40.822 Z M40.404,43.38 C40.404,43.38 29.771,16.879 22.273,13.082 C14.889,9.357 10.782,16.507 14.787,20.54 C18.26,24.045 22.302,23.172 40.404,43.38 Z M39.215,46.637 C39.215,46.637 19.249,26.223 10.87,25.586 C2.622,24.969 1.564,33.146 6.806,35.342 C11.356,37.248 14.758,34.898 39.215,46.637 Z M39.362,50.104 C39.362,50.104 13.104,38.885 5.118,41.502 C-2.737,44.088 -0.585,52.049 5.096,52.068 C10.032,52.09 12.272,48.616 39.362,50.104 Z M40.823,53.249 C40.823,53.249 12.272,52.933 5.896,58.405 C-0.372,63.803 4.662,70.334 9.92,68.179 C14.488,66.309 15.227,62.242 40.823,53.249 Z M43.378,55.597 C43.378,55.597 16.88,66.231 13.083,73.727 C9.358,81.11 16.508,85.218 20.54,81.216 C24.044,77.739 23.172,73.699 43.378,55.597 Z M46.637,56.789 C46.637,56.789 26.225,76.753 25.585,85.131 C24.969,93.378 33.148,94.438 35.342,89.195 C37.249,84.645 34.896,81.245 46.637,56.789 Z M50.104,56.641 C50.104,56.641 38.885,82.897 41.501,90.881 C44.09,98.736 52.048,96.586 52.07,90.903 C52.09,85.968 48.615,83.727 50.104,56.641 Z M53.249,55.179 C53.249,55.179 52.933,83.727 58.405,90.104 C63.803,96.373 70.333,91.338 68.178,86.081 C66.311,81.514 62.243,80.773 53.249,55.179 Z M55.597,52.623 C55.597,52.623 66.231,79.121 73.727,82.917 C81.112,86.642 85.219,79.493 81.215,75.46 C77.741,71.957 73.699,72.827 55.597,52.623 Z M56.788,49.364 C56.788,49.364 76.753,69.776 85.13,70.416 C93.378,71.029 94.437,62.853 89.195,60.659 C84.644,58.75 81.244,61.104 56.788,49.364 Z M56.641,45.896 C56.641,45.896 82.897,57.116 90.88,54.5 C98.737,51.911 96.585,43.953 90.904,43.931 C85.97,43.911 83.727,47.385 56.641,45.896 Z M55.179,42.752 C55.179,42.752 83.73,43.066 90.104,37.595 C96.373,32.197 91.339,25.666 86.081,27.82 C81.514,29.692 80.772,33.759 55.179,42.752 Z M52.623,40.402 C52.623,40.402 79.123,29.77 82.917,22.274 C86.642,14.888 79.493,10.782 75.46,14.785 C71.958,18.26 72.829,22.302 52.623,40.402 Z M49.364,39.214 C49.364,39.214 69.777,19.248 70.415,10.87 C71.031,2.623 62.852,1.564 60.66,6.805 C58.753,11.356 61.104,14.758 49.364,39.214 Z M43.93,5.096 C43.953,-0.585 51.912,-2.737 54.499,5.119 C57.115,13.103 45.896,39.359 45.896,39.359 C47.384,12.273 43.91,10.031 43.93,5.096 Z" id="Fill-14"></path>
            </g>
        </g>
    </g>
</svg>